<svg xmlns="http://www.w3.org/2000/svg" viewBox="0 0 250.23 250.23"><defs><style>.cls-1{fill:#00b4d8;}</style></defs><g id="Layer_2" data-name="Layer 2"><g id="adobe_icons_set" data-name="adobe icons set"><g id="icons"><path class="cls-1" d="M207,250.23H43.2A43.25,43.25,0,0,1,0,207V43.2A43.25,43.25,0,0,1,43.2,0H207a43.25,43.25,0,0,1,43.2,43.2V207A43.25,43.25,0,0,1,207,250.23ZM43.2,11.93A31.31,31.31,0,0,0,11.93,43.2V207A31.31,31.31,0,0,0,43.2,238.3H207A31.31,31.31,0,0,0,238.3,207V43.2A31.31,31.31,0,0,0,207,11.93Z"/><path class="cls-1" d="M59.17,175.34V74.73c0-.73.32-1.1.95-1.1,1.67,0,3.67,0,6-.08l7.48-.15,8.5-.16q4.48-.08,8.9-.08a59.39,59.39,0,0,1,20.15,3,35,35,0,0,1,13.15,8,31,31,0,0,1,7.17,11.1,37,37,0,0,1,2.2,12.67,34.94,34.94,0,0,1-5.83,20.79,32.78,32.78,0,0,1-15.74,11.88,62.68,62.68,0,0,1-22,3.71c-2.31,0-3.94,0-4.88-.08s-2.36-.08-4.25-.08v31a1.25,1.25,0,0,1-1.06,1.42,1.09,1.09,0,0,1-.36,0H60.27c-.73,0-1.1-.42-1.1-1.26M80.9,92.53v32.59q2.05.15,3.78.15h5.19a37,37,0,0,0,11.26-1.57,17,17,0,0,0,8-5.2,15.12,15.12,0,0,0,3.06-10.07A16,16,0,0,0,110,99.77a14.77,14.77,0,0,0-6.85-5.59,29.3,29.3,0,0,0-11.49-2q-3.78,0-6.7.08a38.88,38.88,0,0,0-4,.24"/><path class="cls-1" d="M194.93,118.82a55.85,55.85,0,0,0-11.34-3.31,50.36,50.36,0,0,0-10.94-1.26,20.67,20.67,0,0,0-5.91.71,5.34,5.34,0,0,0-3.07,2,5,5,0,0,0-.78,2.68,4.21,4.21,0,0,0,.94,2.52,10.76,10.76,0,0,0,3.31,2.61,65,65,0,0,0,6.93,3.22,68.68,68.68,0,0,1,15,7.17,22.81,22.81,0,0,1,7.72,8.11,21.7,21.7,0,0,1,2.28,10.07,22.63,22.63,0,0,1-3.78,13A24.81,24.81,0,0,1,184.38,175a44,44,0,0,1-17.72,3.14,63.24,63.24,0,0,1-13.3-1.26,48.63,48.63,0,0,1-10.63-3.14,2.05,2.05,0,0,1-1.1-1.89v-17A.91.91,0,0,1,142,154a.76.76,0,0,1,.87.08,46.2,46.2,0,0,0,12.76,4.8,50.07,50.07,0,0,0,11.49,1.49,17.62,17.62,0,0,0,8.11-1.42,4.45,4.45,0,0,0,2.61-4.09,5.24,5.24,0,0,0-2.36-3.94,38.86,38.86,0,0,0-9.61-4.56A57.89,57.89,0,0,1,152,139.28a24,24,0,0,1-7.4-8.27,21.66,21.66,0,0,1-2.29-10,22.55,22.55,0,0,1,3.31-11.81,24,24,0,0,1,10.24-9,32.53,32.53,0,0,1,15.92-4,99.63,99.63,0,0,1,13.27.19,45.23,45.23,0,0,1,10.4,3.46,1.45,1.45,0,0,1,.94.87,4.3,4.3,0,0,1,.16,1.18v15.91a1.08,1.08,0,0,1-.47.95,1.06,1.06,0,0,1-1.11,0Z"/></g></g></g></svg>