<svg xmlns="http://www.w3.org/2000/svg" viewBox="0 0 250.23 250.23"><defs><style>.cls-1{fill:#00b4d8;}</style></defs><g id="Layer_2" data-name="Layer 2"><g id="adobe_icons_set" data-name="adobe icons set"><g id="icons"><path class="cls-1" d="M207,250.23H43.2A43.25,43.25,0,0,1,0,207V43.2A43.25,43.25,0,0,1,43.2,0H207a43.25,43.25,0,0,1,43.2,43.2V207A43.25,43.25,0,0,1,207,250.23ZM43.2,11.93A31.31,31.31,0,0,0,11.93,43.2V207A31.31,31.31,0,0,0,43.2,238.3H207A31.31,31.31,0,0,0,238.3,207V43.2A31.31,31.31,0,0,0,207,11.93Z"/><path class="cls-1" d="M122.15,151H85.78l-7.42,24.3a1.85,1.85,0,0,1-1.89,1.41H58c-1,0-1.42-.57-1.11-1.73L88.34,84.33c.31-.94.63-2,.94-3.23a21.22,21.22,0,0,0,.63-5.38,1,1,0,0,1,.83-1.1.61.61,0,0,1,.27,0h25q1.1,0,1.26.78l35.83,99.77c.32,1.05,0,1.58-.94,1.57H131.73a1.45,1.45,0,0,1-1.58-1.1Zm-30.9-16.75H117.9c-.63-2.1-2.79-7-3.64-9.58s-2-4.71-2.93-7.7-1.89-6-2.84-9-1.81-5.88-2.6-8.66-1.49-5.33-2.13-7.64h-.16a124.13,124.13,0,0,1-3.31,12.6q-2.21,7.08-4.48,14.49c-1.51,4.93-3.09,11.26-4.56,15.46Z"/><path class="cls-1" d="M174.44,91.05a11.4,11.4,0,0,1-8.66-3.47,12.44,12.44,0,0,1-3.31-9A11.52,11.52,0,0,1,166,69.87a12.18,12.18,0,0,1,8.74-3.39,11.7,11.7,0,0,1,8.89,3.39,12.12,12.12,0,0,1,3.23,8.74,12.3,12.3,0,0,1-3.39,9,12.1,12.1,0,0,1-9,3.47m-10.19,84.13v-72c0-1,.41-1.42,1.26-1.42h17.88c.84,0,1.26.48,1.26,1.42v72c0,1-.42,1.57-1.26,1.57H165.66c-.94,0-1.42-.52-1.41-1.57"/></g></g></g></svg>