<svg xmlns="http://www.w3.org/2000/svg" viewBox="0 0 250.23 250.23"><defs><style>.cls-1{fill:#00b4d8;}</style></defs><g id="Layer_2" data-name="Layer 2"><g id="adobe_icons_set" data-name="adobe icons set"><g id="icons"><path class="cls-1" d="M207,250.23H43.2A43.25,43.25,0,0,1,0,207V43.2A43.25,43.25,0,0,1,43.2,0H207a43.25,43.25,0,0,1,43.2,43.2V207A43.25,43.25,0,0,1,207,250.23ZM43.2,11.93A31.31,31.31,0,0,0,11.93,43.2V207A31.31,31.31,0,0,0,43.2,238.3H207A31.31,31.31,0,0,0,238.3,207V43.2A31.31,31.31,0,0,0,207,11.93Z"/><path class="cls-1" d="M90.62,76.47v98.67c0,1.05-.47,1.58-1.42,1.58h-18c-.85,0-1.26-.53-1.26-1.58V76.47q0-1.26,1.41-1.26h18a1.12,1.12,0,0,1,1.26,1,1.6,1.6,0,0,1,0,.31Z"/><path class="cls-1" d="M149.08,178.85a48.84,48.84,0,0,1-21-4.4,33.43,33.43,0,0,1-14.72-13.3A42.53,42.53,0,0,1,108,138.86a41.18,41.18,0,0,1,5.35-20.63,39.36,39.36,0,0,1,15.59-15.12,50.43,50.43,0,0,1,24.72-5.66c.52,0,1.21,0,2,.08s2.68.13,3.83.24V68c0-.73.32-1.1.95-1.1h18.25a.85.85,0,0,1,1,.71.88.88,0,0,1,0,.23v91.84q0,2.69.23,5.83t.4,5.67a1.62,1.62,0,0,1-.95,1.57,71.84,71.84,0,0,1-15.16,4.72,85.25,85.25,0,0,1-15.12,1.42m10.45-19.52v-43a30.58,30.58,0,0,0-3.44-.47,31.6,31.6,0,0,0-3.23-.15,24.35,24.35,0,0,0-11,2.51,20.28,20.28,0,0,0-11.49,19.68A27.67,27.67,0,0,0,132,148a19.39,19.39,0,0,0,4.41,6.93,16.85,16.85,0,0,0,6.62,3.93,25.88,25.88,0,0,0,8.1,1.27c1.47,0,2.84-.06,4.1-.16a26.2,26.2,0,0,0,4.31-.63Z"/></g></g></g></svg>