<svg xmlns="http://www.w3.org/2000/svg" viewBox="0 0 250.23 250.23"><defs><style>.cls-1{fill:#00b4d8;}</style></defs><g id="Layer_2" data-name="Layer 2"><g id="adobe_icons_set" data-name="adobe icons set"><g id="icons"><path class="cls-1" d="M207,250.23H43.2A43.25,43.25,0,0,1,0,207V43.2A43.25,43.25,0,0,1,43.2,0H207a43.25,43.25,0,0,1,43.2,43.2V207A43.25,43.25,0,0,1,207,250.23ZM43.2,11.93A31.31,31.31,0,0,0,11.93,43.2V207A31.31,31.31,0,0,0,43.2,238.3H207A31.31,31.31,0,0,0,238.3,207V43.2A31.31,31.31,0,0,0,207,11.93Z"/><path class="cls-1" d="M130.62,176.8h-62c-1,0-1.58-.57-1.58-1.73l.08-98.8a1.25,1.25,0,0,1,1-1.42,1.15,1.15,0,0,1,.37,0H86.75a1,1,0,0,1,1.1.83,1.22,1.22,0,0,1,0,.27l.25,79.92h45.62c.94,0,1.31.47,1.1,1.41l-2.63,18.1a1.47,1.47,0,0,1-.63,1.18,1.93,1.93,0,0,1-.94.24"/><path class="cls-1" d="M148.07,98.57h17.16a2.14,2.14,0,0,1,2.05,1.57,7.5,7.5,0,0,1,.78,2.2,26.82,26.82,0,0,1,.48,3.07c.1,1.11.15,2.28.15,3.54a37,37,0,0,1,10.47-8.41A26.73,26.73,0,0,1,193,97a1.29,1.29,0,0,1,1.07.36,1.44,1.44,0,0,1,.3.49,1.22,1.22,0,0,1,0,.57v19c0,.73-.53,1.1-1.58,1.1a33.24,33.24,0,0,0-9.54.71,38.76,38.76,0,0,0-8.2,2.61,23.49,23.49,0,0,0-6.37,3.61v49.87c0,.94-.42,1.42-1.26,1.42H149.49a1.4,1.4,0,0,1-1.58-1.18,1.34,1.34,0,0,1,0-.4V121.08q0-3.47-.08-7.32c-.05-2.57-.13-5.12-.23-7.63a49.92,49.92,0,0,0-.63-6.46.91.91,0,0,1,.65-1.1.86.86,0,0,1,.45,0Z"/></g></g></g></svg>