<svg xmlns="http://www.w3.org/2000/svg" viewBox="0 0 250.23 250.23"><defs><style>.cls-1{fill:#00b4d8;}</style></defs><g id="Layer_2" data-name="Layer 2"><g id="adobe_icons_set" data-name="adobe icons set"><g id="icons"><path class="cls-1" d="M207,250.23H43.2A43.25,43.25,0,0,1,0,207V43.2A43.25,43.25,0,0,1,43.2,0H207a43.25,43.25,0,0,1,43.2,43.2V207A43.25,43.25,0,0,1,207,250.23ZM43.2,11.93A31.31,31.31,0,0,0,11.93,43.2V207A31.31,31.31,0,0,0,43.2,238.3H207A31.31,31.31,0,0,0,238.3,207V43.2A31.31,31.31,0,0,0,207,11.93Z"/><path class="cls-1" d="M195.57,78.35A68.48,68.48,0,0,0,145.41,58,63.55,63.55,0,0,0,98.87,77.5a57.19,57.19,0,0,0-63.26,50.38,57.82,57.82,0,0,0,15.67,46.4A56,56,0,0,0,92.4,192.06h54.5A67.41,67.41,0,0,0,214,124.46a68.52,68.52,0,0,0-18.41-46.11M91.38,181.63a45.89,45.89,0,0,1-46-45.75c0-.4,0-.8,0-1.21,0-26,19.55-47.61,45.54-47.61A48.12,48.12,0,0,1,122.65,99.5l.24.2,19.63,20.15a8.44,8.44,0,0,1-12.12,11.76l-19.48-20a30.28,30.28,0,0,0-19.74-7.31,29.37,29.37,0,0,0-29.12,29.62c0,.21,0,.42,0,.63a30.14,30.14,0,0,0,29.74,30.54h3.92l0,.11c5.57,7.69,21.08,16.41,21.08,16.41Zm97.09-16.36A57.07,57.07,0,0,1,147.24,182a56.45,56.45,0,0,1-40.09-17.15l-25.95-26A8.46,8.46,0,0,1,93.31,127l25.77,25.83a41.27,41.27,0,0,0,28.81,12.63,39.13,39.13,0,0,0,28.53-12.05,40.64,40.64,0,0,0,10.45-29.21A39.4,39.4,0,0,0,148.6,83.67h-.86a36.32,36.32,0,0,0-22.44,6.55c-.07-.07-1.94-1.31-4-2.58-1.3-.79-2.71-1.58-3.82-2.18s-4.76-2.4-6.86-3.27c-.52-.22-1.2-.46-1.49-.56l.06,0c10.68-10,23.2-13.35,37.82-13.35a55.32,55.32,0,0,1,56.58,54c0,.56,0,1.12,0,1.68a57.9,57.9,0,0,1-15.08,41.33Z"/></g></g></g></svg>